<svg xmlns="http://www.w3.org/2000/svg" viewBox="0 0 163.16 186.5" fill="currentColor"><path d="M36.25,6H48a3,3,0,0,0,0-6H36.25a3,3,0,0,0,0,6Z"/><path d="M3,6H24.5a3,3,0,0,0,0-6H3A3,3,0,0,0,3,6Z"/><path d="M3,24H48a3,3,0,0,0,0-6H3a3,3,0,0,0,0,6Z"/><path d="M48,36H24.5a3,3,0,0,0,0,6H48a3,3,0,0,0,0-6Z"/><path d="M3,42h9.75a3,3,0,0,0,0-6H3a3,3,0,0,0,0,6Z"/><path d="M136.38,66.65c-1.12-.88-2.32-1.75-3.59-2.66-5.52-4-11.22-8.09-11.13-14V6h5.75a3,3,0,0,0,0-6H65.91a3,3,0,0,0,0,6h5.75V50C71.74,55.9,66,60,60.53,64c-1.27.91-2.47,1.78-3.6,2.66a75.6,75.6,0,0,0-7.8,7.1L29.38,54H3.26a3,3,0,1,0,0,6H26.89L45.16,78.27a66.41,66.41,0,1,0,118,41.73C163.16,99.5,153.4,80.05,136.38,66.65ZM96.66,180.5A60.22,60.22,0,0,1,49.44,82.55l9.12,9.11a47.8,47.8,0,1,0,3.9-4.58L53.38,78a69.68,69.68,0,0,1,7.26-6.63c1-.81,2.18-1.64,3.39-2.52C70.16,64.44,77.78,58.94,77.66,50V6h38V50c-.13,9,7.49,14.48,13.62,18.89,1.22.88,2.36,1.71,3.39,2.52,15.56,12.25,24.49,30,24.49,48.63A60.57,60.57,0,0,1,96.66,180.5ZM74.26,98.88,66.7,91.32A41.42,41.42,0,0,1,94,78.59v23.63a18,18,0,0,0-13.36,26L61.53,142.06A41.38,41.38,0,0,1,62.86,96L70,103.12a3,3,0,0,0,4.25-4.24ZM96.66,108a12,12,0,1,1-12,12A12,12,0,0,1,96.66,108ZM84.23,133A17.9,17.9,0,0,0,107,134.72l16.72,16.72a41.39,41.39,0,0,1-58.61-4.55ZM128,147.21,111.24,130.5a17.8,17.8,0,0,0,1.61-18.31L132,98.28a41.37,41.37,0,0,1-4,48.93Zm-18.56-39.92a18,18,0,0,0-9.39-5V78.65a41.43,41.43,0,0,1,28.49,14.76Z"/><circle cx="100.5" cy="19" r="3"/><circle cx="105" cy="49" r="3"/><circle cx="93.5" cy="37.5" r="3"/><circle cx="89.5" cy="59.5" r="3"/></svg>