<svg xmlns="http://www.w3.org/2000/svg" viewBox="0 0 37.33 37.33"><path d="M2.84 0a.54.54 0 0 1 .56.57v28.07h3.07a2.44 2.44 0 0 1 2.41-1.89 2.31 2.31 0 0 1 1.66.71l3.21-2a2.29 2.29 0 0 1-.19-.8 2.47 2.47 0 0 1 2.44-2.4 1.36 1.36 0 0 1 .47 0l1.42-3.12h-12a.54.54 0 0 1-.57-.52.55.55 0 0 1 .57-.57h12.49l1.8-3.92a2.57 2.57 0 0 1-.95-1.94 2.44 2.44 0 0 1 2.41-2.46 2.33 2.33 0 0 1 1.19.29l3.59-4A2.55 2.55 0 0 1 26 4.68a2.44 2.44 0 0 1 2.41-2.46 2.48 2.48 0 0 1 2.41 1.89h3.45v-.85l2.46 1.42-2.42 1.42v-.85h-3.45a2.49 2.49 0 0 1-2.41 1.89 2.59 2.59 0 0 1-1.14-.33l-3.63 4a2.35 2.35 0 0 1 .47 1.42 2.48 2.48 0 0 1-2.51 2.41h-.42l-3.69 8.13a2.38 2.38 0 0 1 .95 1.89A2.48 2.48 0 0 1 16 27.13a2.45 2.45 0 0 1-1.7-.71l-3.17 2a2.39 2.39 0 0 1 .19.81 2.47 2.47 0 0 1-4.87.56H3.4v4.16h33.37a.57.57 0 0 1 .56.57.57.57 0 0 1-.56.56h-1.71v1.71a.57.57 0 0 1-.56.56.57.57 0 0 1-.57-.56v-1.73h-4.16v1.71a.57.57 0 0 1-.56.56.6.6 0 0 1-.57-.56v-1.71h-4.16v1.71a.57.57 0 0 1-.52.56.57.57 0 0 1-.57-.56v-1.71h-4.16v1.71a.57.57 0 0 1-.56.56.6.6 0 0 1-.57-.56v-1.71h-4.16v1.71a.57.57 0 0 1-.57.56.57.57 0 0 1-.56-.56v-1.71H8.65v1.71a.57.57 0 0 1-.52.56.57.57 0 0 1-.57-.56v-1.71H3.4v1.71a.57.57 0 0 1-1.13 0v-1.71H.57A.57.57 0 0 1 0 34.5a.58.58 0 0 1 .57-.57h1.7v-4.16H.57a.57.57 0 1 1 0-1.13h1.7v-4.11H.57a.62.62 0 0 1-.57-.62.6.6 0 0 1 .57-.56h1.7v-4.16H.57a.57.57 0 0 1-.57-.52.58.58 0 0 1 .57-.57h1.7v-4.16H.57a.58.58 0 0 1-.57-.57.6.6 0 0 1 .57-.56h1.7V8.65H.57A.58.58 0 0 1 0 8.08a.61.61 0 0 1 .57-.57h1.7V3.36H.57A.57.57 0 0 1 0 2.84a.57.57 0 0 1 .57-.57h1.7V.57A.55.55 0 0 1 2.84 0zm3 2.09h7.79a.53.53 0 0 1 .57.52.52.52 0 0 1-.57.48H5.79a.52.52 0 0 1-.57-.48.53.53 0 0 1 .57-.52zm10.85 0h4.68a.55.55 0 0 1 .56.52.55.55 0 0 1-.56.48h-4.73a.52.52 0 0 1-.56-.48.52.52 0 0 1 .56-.52zm11.76 1.27a1.32 1.32 0 0 0 0 2.64 1.29 1.29 0 0 0 1.32-1.32 1.28 1.28 0 0 0-1.32-1.32zM5.78 6.06h3a.54.54 0 0 1 .56.47.55.55 0 0 1-.56.53h-3a.53.53 0 0 1-.56-.53.51.51 0 0 1 .56-.47zm6 0h9.51a.55.55 0 0 1 .57.52.56.56 0 0 1-.57.48H11.8a.5.5 0 1 1 0-1zm-6 3.76h10.94a.6.6 0 0 1 0 1.2H5.79a.6.6 0 0 1 0-1.2zm15.85 1.1a1.27 1.27 0 0 0-1.27 1.32 1.3 1.3 0 0 0 1.27 1.32A1.36 1.36 0 0 0 23 12.24a1.32 1.32 0 0 0-1.36-1.32zm.85 7h14.29a.5.5 0 1 1 0 1H22.49a.52.52 0 0 1-.56-.48.52.52 0 0 1 .56-.44zM16 23.35a1.35 1.35 0 0 0-1.32 1.32 1.32 1.32 0 1 0 2.64 0A1.35 1.35 0 0 0 16 23.35zm-7.12 4.53a1.33 1.33 0 0 0-1.32 1.33 1.3 1.3 0 1 0 2.6 0 1.32 1.32 0 0 0-1.28-1.33z" fill="currentColor"/></svg>