<svg xmlns="http://www.w3.org/2000/svg" viewBox="0 0 216 216" fill="currentColor"><path d="M0,0V189H65.5v21h-22a3,3,0,0,0,0,6h129a3,3,0,0,0,0-6h-22V189H216V0ZM210,6V159H6V6ZM144.5,210h-73V189h73ZM6,183V165H210v18Z"/><path d="M184.6,112a14.51,14.51,0,0,0-14,10.9H152.64l-6.52-6.52a3,3,0,0,0-4.24,4.24l8.28,8.28h20.15A14.5,14.5,0,1,0,184.6,112Zm0,23a8.5,8.5,0,1,1,8.5-8.5A8.51,8.51,0,0,1,184.6,135Z"/><path d="M184.6,68a14.52,14.52,0,0,0-14.06,11H161.1a3,3,0,0,0,0,6h9.23A14.49,14.49,0,1,0,184.6,68Zm0,23a8.5,8.5,0,1,1,8.5-8.5A8.51,8.51,0,0,1,184.6,91Z"/><path d="M144,48.9a3,3,0,0,0,2.12-.88l6.52-6.52h17.77a14.5,14.5,0,1,0,0-6H150.16l-8.28,8.28a3,3,0,0,0,0,4.24A3,3,0,0,0,144,48.9ZM184.6,30a8.5,8.5,0,1,1-8.5,8.5A8.51,8.51,0,0,1,184.6,30Z"/><path d="M32.5,141a14.5,14.5,0,0,0,14.28-12.1H66.94l8.28-8.28A3,3,0,0,0,71,116.38l-6.53,6.52H46.53a14.49,14.49,0,1,0-14,18.1Zm0-23a8.5,8.5,0,1,1-8.5,8.5A8.51,8.51,0,0,1,32.5,118Z"/><path d="M32.5,97A14.51,14.51,0,0,0,46.77,85H56a3,3,0,0,0,0-6H46.55a14.49,14.49,0,1,0-14,18Zm0-23A8.5,8.5,0,1,1,24,82.5,8.51,8.51,0,0,1,32.5,74Z"/><path d="M32.5,53A14.51,14.51,0,0,0,46.68,41.5H64.45L71,48a3,3,0,0,0,4.24,0,3,3,0,0,0,0-4.24L66.94,35.5H46.68A14.5,14.5,0,1,0,32.5,53Zm0-23A8.5,8.5,0,1,1,24,38.5,8.51,8.51,0,0,1,32.5,30Z"/><path d="M108,94A12.5,12.5,0,1,0,95.5,81.5,12.52,12.52,0,0,0,108,94Zm0-19a6.5,6.5,0,1,1-6.5,6.5A6.51,6.51,0,0,1,108,75Z"/><path d="M73.7,59.86l7.55,10.69-12.9,2.39L68,75a40.64,40.64,0,0,0,0,13l.33,2.08,12.9,2.39L73.7,103.14l1.22,1.74A40.62,40.62,0,0,0,84,114.12l1.69,1.25,11-7.37,2.17,13,2.09.36a40.17,40.17,0,0,0,7,.61,42.06,42.06,0,0,0,5.94-.43l2.08-.31,2.69-13.19,10.94,7.73,1.73-1.22a40.62,40.62,0,0,0,9.24-9.08l1.25-1.69-7.54-11.28,13.32-2.47L148,88a40.64,40.64,0,0,0,0-13l-.33-2.08-13.32-2.47,7.54-11.28-1.25-1.69a40.62,40.62,0,0,0-9.24-9.08l-1.74-1.22-10.93,7.72L116,41.74l-2.08-.31a41.13,41.13,0,0,0-13,.18l-2.1.36L96.75,55,85.69,47.63,84,48.88a40.62,40.62,0,0,0-9.08,9.24ZM85.92,55l11,7.4,1.54-.74c.59-.29,1.21-.55,1.82-.78l1.64-.6,2.13-13.05a34.49,34.49,0,0,1,6.89-.09l2.66,13,1.61.57a19,19,0,0,1,1.93.78l1.57.72,10.83-7.64a34.55,34.55,0,0,1,4.92,4.83l-7.4,11,.74,1.54a20.86,20.86,0,0,1,.85,2l.58,1.62,13.05,2.41c.11,1.15.17,2.3.17,3.45s-.06,2.3-.17,3.45l-13.05,2.41L128.7,89a20.86,20.86,0,0,1-.85,2l-.74,1.54,7.4,11a34.55,34.55,0,0,1-4.92,4.83l-10.82-7.64-1.58.72c-.63.29-1.28.56-1.93.79l-1.61.56-2.66,13a34.49,34.49,0,0,1-6.89-.09l-2.18-13.06-1.62-.6c-.61-.23-1.21-.49-1.79-.77L97,100.61,85.91,108a35.65,35.65,0,0,1-4.83-4.92l7.65-10.83L88,90.69c-.26-.55-.5-1.13-.71-1.71l-.58-1.62L73.67,85c-.11-1.15-.17-2.3-.17-3.45s.06-2.3.17-3.45l13-2.41L87.3,74c.21-.58.45-1.15.71-1.71l.72-1.58L81.09,59.91A34.55,34.55,0,0,1,85.92,55Z"/></svg>