<svg xmlns="http://www.w3.org/2000/svg" viewBox="0 0 169 145.7" fill="currentColor"><path d="M46.35,0h7.17a4.76,4.76,0,0,1,4.79,4.71.49.49,0,0,1,0,.12v4l4.43,1.25L65,6.32a5,5,0,0,1,6.72-1.65l6.08,3.54a5.65,5.65,0,0,1,2.33,2.94,4.73,4.73,0,0,1-.44,3.78l-2.29,3.54a26.35,26.35,0,0,1,3.34,3.34l3.74-1.93a4.33,4.33,0,0,1,3.58-.4,4,4,0,0,1,3.14,2.29l3.58,6.08a5.51,5.51,0,0,1,.6,3.54,4.79,4.79,0,0,1-2.49,3.18l-3.58,2.09,1.25,4.58H94.8a4.91,4.91,0,0,1,4.83,4.83V53.2a5,5,0,0,1-4.83,5H90.62l-1.25,4.42L93,64.7a6.48,6.48,0,0,1,2.49,2.94,5.65,5.65,0,0,1-.6,3.74l-3.58,6.28a4.34,4.34,0,0,1-2.94,2.09,4,4,0,0,1-3.78-.4l-3.78-2.09a26.35,26.35,0,0,1-3.34,3.34l2.29,3.78a4,4,0,0,1,.44,3.54,5.4,5.4,0,0,1-2.33,2.94l-6.08,3.58A4.91,4.91,0,0,1,65,92.75L62.73,89a15.44,15.44,0,0,1-4.43,1.28v4a4.91,4.91,0,0,1-4.78,5H46.35a5.08,5.08,0,0,1-5-5v-4A18.05,18.05,0,0,1,36.94,89l-2.13,3.78a4.84,4.84,0,0,1-6.62,1.71l0,0-6.32-3.58a4.47,4.47,0,0,1-1.93-6l.2-.34,2.13-4-3.38-3.34-3.54,2.09A4.74,4.74,0,0,1,8.77,77.8a2.26,2.26,0,0,1-.16-.26L4.83,71.38a5.44,5.44,0,0,1-.44-3.74A8,8,0,0,1,6.72,64.7l3.54-2.09c-.42-1.46-.77-2.93-1-4.42H4.83A5,5,0,0,1,0,53.2V46.07a5,5,0,0,1,4.83-4.83H9.21a35.74,35.74,0,0,1,1-4.58L6.72,34.57a5.43,5.43,0,0,1-2.33-3.18,5.17,5.17,0,0,1,.44-3.54l3.78-6.08a4.66,4.66,0,0,1,6.29-2l.19.1L18.87,22c1.05-1.25,2.34-2.29,3.38-3.34l-2.13-3.54a5.79,5.79,0,0,1-.64-3.78,5.4,5.4,0,0,1,2.29-2.94l6.4-3.54a5,5,0,0,1,6.68,1.65L37,10.26,41.36,9V5a4.92,4.92,0,0,1,4.83-5ZM134,1.85a69.84,69.84,0,0,1,16.1,1.85,2.78,2.78,0,0,1,2.09,3.14,3,3,0,0,1-3.34,1.85A59.47,59.47,0,0,0,134,6.84a62.2,62.2,0,0,0-32.67,9.26,3.35,3.35,0,0,1-1.49.44,2.68,2.68,0,0,1-2.09-1.25A2.57,2.57,0,0,1,98.54,12,66.76,66.76,0,0,1,134,1.85Zm-80.47,3L46.56,5l.2,6.28a3.14,3.14,0,0,1-2.1,2.49,29.88,29.88,0,0,0-8,2.09,2.49,2.49,0,0,1-2.94-1.24L30.22,9.22l-5.88,3.54L27.68,18a2.61,2.61,0,0,1-.6,3.38,42.2,42.2,0,0,0-5.67,5.43,2,2,0,0,1-2.69.94,2.21,2.21,0,0,1-.45-.3L12.8,24.51,9.46,30.34l5.43,2.94a2.66,2.66,0,0,1,1.21,3.14,34,34,0,0,0-2.26,7.84,2.51,2.51,0,0,1-2.49,2.1H4.83l.4,6.92L11.35,53a2.65,2.65,0,0,1,2.49,2.1,33.71,33.71,0,0,0,2.26,7.68A2.59,2.59,0,0,1,15.05,66L9.62,69.09l3.54,6.08,5.27-3.34a2.28,2.28,0,0,1,3.14.6,46,46,0,0,0,5.67,5.67,2.53,2.53,0,0,1,.6,3.34l-3.29,5.43L30.62,90l2.94-5.51a2.16,2.16,0,0,1,2.09-1h.85a37.18,37.18,0,0,0,8,2.1A2.65,2.65,0,0,1,46.64,88v6.32l7-.24L53.36,88a2.49,2.49,0,0,1,2.09-2.49,31.62,31.62,0,0,0,7.76-2.1,2.66,2.66,0,0,1,3.18,1l3.14,5.67,5.88-3.78-3.14-5a2.53,2.53,0,0,1,.6-3.34,49.18,49.18,0,0,0,5.59-5.59,2.29,2.29,0,0,1,3.14-.6L87.08,75l3.34-6.07L85,66a2.58,2.58,0,0,1-1-3.14,31,31,0,0,0,1.85-7.76A3,3,0,0,1,88.52,53h6.32l-.24-6.68H88.52a2.75,2.75,0,0,1-2.73-2.09,33.89,33.89,0,0,0-1.85-7.76,2.65,2.65,0,0,1,1-3.14l5.44-3.14-3.55-6L81.6,27.28a2,2,0,0,1-2.84-.19,2,2,0,0,1-.3-.45,44.12,44.12,0,0,0-5.67-5.43,2.61,2.61,0,0,1-.6-3.38l3.14-5.64L69,9.05l-2.7,5.44a2.49,2.49,0,0,1-3.18,1.24,26.1,26.1,0,0,0-7.76-2.09,2.79,2.79,0,0,1-2.09-2.49ZM134.07,19.4a51.38,51.38,0,0,1,33,12.07,2.74,2.74,0,0,1,.2,3.5,2.68,2.68,0,0,1-2.09.8,2.37,2.37,0,0,1-1.65-.6,45.3,45.3,0,0,0-29.42-11,44.49,44.49,0,0,0-17.3,3.5,2.89,2.89,0,0,1-3.34-1.44,2.46,2.46,0,0,1,1.18-3.27l.07,0A52.49,52.49,0,0,1,134.07,19.4ZM49.94,24.91a24.83,24.83,0,1,1-.33,0Zm0,5.27A19.68,19.68,0,1,0,69.61,49.86v-.12A19.71,19.71,0,0,0,49.94,30.18Zm79.18,5.51a30.78,30.78,0,0,1,10.83,0A2.66,2.66,0,0,1,142,37.78L143.49,47h.2l7.52-5.47a3.57,3.57,0,0,1,2.9,0,39.19,39.19,0,0,1,7.73,7.76,2.66,2.66,0,0,1,0,3l-5.43,7.57v.48l9.17,1.25a2.44,2.44,0,0,1,2.09,2.13,46.89,46.89,0,0,1,.4,5.43,51.11,51.11,0,0,1-.4,5.67,2.42,2.42,0,0,1-2.09,2.1l-9.17,1.48L161.84,86a3,3,0,0,1,0,3.14,39.13,39.13,0,0,1-7.73,7.8,2.53,2.53,0,0,1-2.9,0l-7.52-5.67c0,.2,0,.2-.2.2L142,100.6a2.74,2.74,0,0,1-2.09,2.09,48.68,48.68,0,0,1-5.39.4,45.09,45.09,0,0,1-5.44-.4A2.31,2.31,0,0,1,127,100.6l-1.45-9.26c-.2,0-.2,0-.2-.2l-7.52,5.67a2.53,2.53,0,0,1-2.9,0,40.48,40.48,0,0,1-8-7.8,4.26,4.26,0,0,1,0-3.14l5.76-7.53h0l-9.18-1.48a3.38,3.38,0,0,1-2.09-2.1,53.64,53.64,0,0,1-.4-5.67,49.22,49.22,0,0,1,.4-5.43,3.42,3.42,0,0,1,2.09-2.14l9.18-1.16c0-.2,0-.2.2-.2L107,52.31a4,4,0,0,1,0-3,35.29,35.29,0,0,1,8-7.76,3.57,3.57,0,0,1,2.9,0L125.5,47h.2l1.45-9.26A2.26,2.26,0,0,1,129.12,35.69Zm2.5,4.83-1.45,8.81a2.49,2.49,0,0,1-1.69,2.14c-.8.2-1.45.6-2.49.84a2.22,2.22,0,0,1-2.5-.24l-7.08-5a25.12,25.12,0,0,0-4,4l5,7.17a2.8,2.8,0,0,1,.41,2.49,16.56,16.56,0,0,0-1,2.54A2.19,2.19,0,0,1,114.88,65l-9,1.44V72l8.77,1.49a2.2,2.2,0,0,1,2,1.69,9.31,9.31,0,0,0,1,2.29,3.24,3.24,0,0,1-.41,2.74l-4.7,7.16a38.14,38.14,0,0,0,4,4l7.08-5.27a2.62,2.62,0,0,1,2.7-.2c.84.2,1.49.64,2.29.84a2.47,2.47,0,0,1,1.69,2.1l1.45,8.85a28.4,28.4,0,0,0,5.83,0L139,88.89a3.44,3.44,0,0,1,1.65-2.1c.85-.2,1.69-.64,2.54-.84a2.26,2.26,0,0,1,2.49.2L153,91.42a39.12,39.12,0,0,0,4-4l-5.19-7.16a2.49,2.49,0,0,1-.2-2.74,9.27,9.27,0,0,0,1-2.29c.41-.85,1-1.69,2.06-1.69L163.25,72a13.81,13.81,0,0,0,.2-2.94,13.26,13.26,0,0,0-.2-2.74l-8.57-1.45c-1.05,0-1.65-.84-2.06-1.69a17.46,17.46,0,0,0-1-2.53,2.12,2.12,0,0,1,.2-2.49L157,50.82A35.9,35.9,0,0,0,153,47l-7.29,5a2.53,2.53,0,0,1-2.73.24,15.83,15.83,0,0,0-2.3-.84A3.55,3.55,0,0,1,139,49.33l-1.25-8.81A28.36,28.36,0,0,0,131.62,40.52ZM134,58.14a11,11,0,1,1-11,11V69A10.94,10.94,0,0,1,134,58.14Zm0,5a6,6,0,1,0,5.84,6.08V69A6,6,0,0,0,134,63.13ZM16.1,113.51H152.9a16.1,16.1,0,1,1,0,32.19H16.1a16.1,16.1,0,1,1,0-32.19Zm0,5a11,11,0,0,0-5.88,20.12l20.4-20.12Zm21.64,0-22,21.89H35.89L58,118.5Zm27.33,0L42.81,140.39H62.93L85.22,118.5Zm27.36,0L70.14,140.39H90.25l22.42-21.89Zm27.32,0L97.46,140.39H152.9a11,11,0,0,0,11.15-10.86,11.19,11.19,0,0,0-11.15-11Z"/></svg>