<svg xmlns="http://www.w3.org/2000/svg" viewBox="0 0 42 36.18"><path d="M11.52 0h1.78a1.18 1.18 0 0 1 1.19 1.2v1l1.1.31.57-.94a1.25 1.25 0 0 1 1.67-.41l1.51.88a1.41 1.41 0 0 1 .58.73 1.18 1.18 0 0 1-.11.94l-.57.88a6.51 6.51 0 0 1 .83.83l.93-.48a1.08 1.08 0 0 1 .89-.1 1 1 0 0 1 .78.57l.89 1.51a1.38 1.38 0 0 1 .15.88 1.19 1.19 0 0 1-.62.79l-.89.52.31 1.14h1.05a1.22 1.22 0 0 1 1.2 1.2v1.77a1.23 1.23 0 0 1-1.2 1.24h-1.04l-.31 1.1.89.52a1.62 1.62 0 0 1 .62.73 1.42 1.42 0 0 1-.15.93l-.89 1.56a1.09 1.09 0 0 1-.73.52 1 1 0 0 1-.94-.1l-.94-.52a6.51 6.51 0 0 1-.83.83l.57.94a1 1 0 0 1 .11.88 1.34 1.34 0 0 1-.58.73l-1.51.89a1.22 1.22 0 0 1-1.67-.42l-.57-.94a3.9 3.9 0 0 1-1.1.32v1a1.22 1.22 0 0 1-1.19 1.24h-1.78a1.26 1.26 0 0 1-1.25-1.24v-1a4.5 4.5 0 0 1-1.09-.32l-.53.94a1.2 1.2 0 0 1-1.65.42l-1.57-.89A1.11 1.11 0 0 1 5 21l.53-1-.84-.83-.88.52a1.18 1.18 0 0 1-1.67-.42l-.94-1.53a1.36 1.36 0 0 1-.11-.93 2 2 0 0 1 .58-.73l.88-.52a11 11 0 0 1-.26-1.1H1.2A1.25 1.25 0 0 1 0 13.22v-1.77a1.24 1.24 0 0 1 1.2-1.2h1.09a8.71 8.71 0 0 1 .26-1.14l-.88-.52a1.35 1.35 0 0 1-.58-.79 1.3 1.3 0 0 1 .11-.88l.94-1.51a1.16 1.16 0 0 1 1.61-.47l.94.52c.26-.31.58-.57.84-.83L5 3.75a1.45 1.45 0 0 1-.16-.94 1.35 1.35 0 0 1 .57-.73L7 1.2a1.24 1.24 0 0 1 1.66.41l.53.94 1.09-.31v-1A1.22 1.22 0 0 1 11.52 0zm21.77.46a17.29 17.29 0 0 1 4 .46.69.69 0 0 1 .52.78.75.75 0 0 1-.83.46 14.8 14.8 0 0 0-3.69-.46A15.48 15.48 0 0 0 25.17 4a.81.81 0 0 1-.37.11.67.67 0 0 1-.52-.31.64.64 0 0 1 .21-.83 16.56 16.56 0 0 1 8.8-2.51zm-20 .74l-1.72.05.05 1.56a.78.78 0 0 1-.52.62 7.35 7.35 0 0 0-2 .52.62.62 0 0 1-.73-.31l-.86-1.35-1.46.88.83 1.3a.65.65 0 0 1-.15.84 10.52 10.52 0 0 0-1.41 1.35.5.5 0 0 1-.78.16l-1.36-.73-.83 1.45 1.35.73a.66.66 0 0 1 .3.78A8.47 8.47 0 0 0 3.44 11a.62.62 0 0 1-.62.52H1.2l.1 1.72 1.52-.06a.66.66 0 0 1 .62.52A8.47 8.47 0 0 0 4 15.61a.64.64 0 0 1-.26.78l-1.35.78.88 1.51 1.31-.83a.57.57 0 0 1 .78.15 11.73 11.73 0 0 0 1.41 1.41.63.63 0 0 1 .15.83l-.82 1.35 1.51.78.73-1.37a.53.53 0 0 1 .52-.26h.21a9.2 9.2 0 0 0 2 .52.66.66 0 0 1 .52.62v1.57l1.73-.06-.06-1.51a.62.62 0 0 1 .52-.62 7.86 7.86 0 0 0 1.93-.52.66.66 0 0 1 .79.26l.78 1.41 1.46-.94-.78-1.25a.63.63 0 0 1 .15-.83A12.51 12.51 0 0 0 19.5 18a.57.57 0 0 1 .78-.15l1.36.78.83-1.51-1.35-.73a.64.64 0 0 1-.26-.78 7.68 7.68 0 0 0 .46-1.93.75.75 0 0 1 .68-.52h1.57l-.06-1.66H22a.69.69 0 0 1-.68-.52 8.36 8.36 0 0 0-.46-1.93.66.66 0 0 1 .26-.78l1.35-.78L21.59 6l-1.31.78a.5.5 0 0 1-.78-.16 11.16 11.16 0 0 0-1.41-1.35.65.65 0 0 1-.15-.84l.78-1.4-1.57-.78-.67 1.35a.62.62 0 0 1-.79.31 6.42 6.42 0 0 0-1.93-.52.7.7 0 0 1-.52-.62zm20.03 3.62a12.78 12.78 0 0 1 8.19 3 .68.68 0 0 1 .05.87.67.67 0 0 1-.52.2.59.59 0 0 1-.41-.15A11.24 11.24 0 0 0 33.32 6a11 11 0 0 0-4.3.87.72.72 0 0 1-.83-.36.61.61 0 0 1 .31-.82 13.09 13.09 0 0 1 4.82-.87zM12.41 6.19a6.17 6.17 0 1 1-6.21 6.17 6.15 6.15 0 0 1 6.21-6.17zm0 1.31a4.89 4.89 0 1 0 4.89 4.86 4.9 4.9 0 0 0-4.89-4.86zm19.68 1.37a7.6 7.6 0 0 1 2.69 0 .66.66 0 0 1 .52.52l.36 2.3h.05l1.87-1.36a.9.9 0 0 1 .72 0 9.75 9.75 0 0 1 1.92 1.93.66.66 0 0 1 0 .74l-1.35 1.88V15l2.28.31a.61.61 0 0 1 .52.53 12.26 12.26 0 0 1 .1 1.35 13.36 13.36 0 0 1-.1 1.41.6.6 0 0 1-.52.52l-2.28.37 1.35 1.88a.73.73 0 0 1 0 .78 9.79 9.79 0 0 1-1.92 1.94.63.63 0 0 1-.72 0l-1.87-1.41c0 .05 0 .05-.05.05L35.3 25a.68.68 0 0 1-.52.52 12.08 12.08 0 0 1-1.34.1 11.25 11.25 0 0 1-1.35-.1.57.57 0 0 1-.52-.52l-.36-2.3c-.05 0-.05 0-.05-.05l-1.87 1.41a.63.63 0 0 1-.72 0 10.07 10.07 0 0 1-2-1.94 1.05 1.05 0 0 1 0-.78L28 19.47h0l-2.28-.37a.84.84 0 0 1-.52-.52 13.36 13.36 0 0 1-.1-1.41 12.26 12.26 0 0 1 .1-1.35.85.85 0 0 1 .52-.53L28 15c0-.05 0-.05.05-.05L26.6 13a1 1 0 0 1 0-.74 8.82 8.82 0 0 1 2-1.93.9.9 0 0 1 .72 0l1.87 1.36h.05l.36-2.3a.56.56 0 0 1 .49-.52zm.62 1.2l-.36 2.19a.62.62 0 0 1-.42.53c-.2.05-.36.15-.62.21a.55.55 0 0 1-.62-.06l-1.76-1.25a6.13 6.13 0 0 0-1 1l1.24 1.78a.7.7 0 0 1 .1.62 4.19 4.19 0 0 0-.26.63.54.54 0 0 1-.46.42l-2.23.36v1.4l2.18.37a.55.55 0 0 1 .51.42 2.3 2.3 0 0 0 .26.57.81.81 0 0 1-.1.68L28 21.72a9.64 9.64 0 0 0 1 1l1.76-1.31a.65.65 0 0 1 .67-.05c.21.05.37.16.57.21a.61.61 0 0 1 .42.52l.36 2.2a7 7 0 0 0 1.45 0l.31-2.2a.85.85 0 0 1 .41-.52c.21-.05.42-.16.63-.21a.56.56 0 0 1 .62.05l1.81 1.31a9.64 9.64 0 0 0 1-1l-1.29-1.78a.62.62 0 0 1-.05-.68 2.3 2.3 0 0 0 .26-.57c.1-.21.25-.42.51-.42l2.13-.37a3.31 3.31 0 0 0 .05-.73 3.12 3.12 0 0 0-.05-.68l-2.13-.36c-.26 0-.41-.21-.51-.42a4.19 4.19 0 0 0-.26-.63.53.53 0 0 1 .05-.62l1.29-1.83a8.71 8.71 0 0 0-1-.94l-1.81 1.25a.63.63 0 0 1-.68.06 4.07 4.07 0 0 0-.57-.21.87.87 0 0 1-.41-.53l-.31-2.19a7 7 0 0 0-1.52 0zm.58 4.38a2.73 2.73 0 1 1-2.73 2.7 2.72 2.72 0 0 1 2.73-2.7zm0 1.24a1.48 1.48 0 1 0 1.45 1.46 1.49 1.49 0 0 0-1.45-1.46zM4 28.21h34a4 4 0 1 1 0 8H4a4 4 0 1 1 0-8zm0 1.24a2.73 2.73 0 0 0-1.46 5l5.07-5zm5.38 0l-5.46 5.44h5l5.49-5.44zm6.79 0l-5.53 5.44h5l5.54-5.44zm6.8 0l-5.54 5.44h5L28 29.45zm6.79 0l-5.54 5.44H38a2.74 2.74 0 0 0 2.77-2.7A2.78 2.78 0 0 0 38 29.45z" fill="currentColor"/></svg>