<svg xmlns="http://www.w3.org/2000/svg" viewBox="0 0 39.67 39.97"><path d="M39.47 24.38l-7.23-6.48a.59.59 0 0 0-.41-.15h-5.37V13.3h5.37a.55.55 0 0 0 .56-.41.63.63 0 0 0-.1-.65l-12-12a.59.59 0 0 0-.86 0l-12 12.05a.8.8 0 0 0-.15.65.69.69 0 0 0 .55.41h5.48v4.45H7.78a.54.54 0 0 0-.35.15L.2 24.38a.64.64 0 0 0-.2.41v14.57a.61.61 0 0 0 .6.64h38.46a.65.65 0 0 0 .61-.61v-14.6a.47.47 0 0 0-.2-.41zm-7-4.7l5 4.55h-5zM8.44 19h4.82v2.58a.58.58 0 1 0 1.15 0v-8.89a.59.59 0 0 0-.6-.61H9.24L19.83 1.46l10.55 10.62h-4.57a.58.58 0 0 0-.55.61v8.86a.62.62 0 0 0 .55.66.67.67 0 0 0 .65-.66V19h4.77v5.26H8.44zm-1.21.71v4.55H2.16zM38 25.39l-4.12 6.89H5.72l-4.06-6.89zm.45 13.37H1.21V27l3.66 6.18a.87.87 0 0 0 .55.3h28.82a.6.6 0 0 0 .51-.3L38.46 27z" fill="currentColor"/></svg>