<svg xmlns="http://www.w3.org/2000/svg" viewBox="0 0 30.33 40.22"><path d="M15.19 0A15.27 15.27 0 0 0 4.31 25.9a7.12 7.12 0 0 1 2.12 5.17v4.33a1.39 1.39 0 0 0 1.39 1.39h.3A4 4 0 0 0 12 40.22h6.19a4 4 0 0 0 3.91-3.43h.25a1.43 1.43 0 0 0 1.45-1.39v-4.18A7.62 7.62 0 0 1 25.93 26 15.24 15.24 0 0 0 15.19 0zm.55 1.24A14 14 0 0 1 29.1 14.62h-2.82a3.12 3.12 0 0 0 .34-1.5 3.29 3.29 0 0 0-1.09-2.48A3.31 3.31 0 0 0 20 12.83a2.84 2.84 0 0 0 .35 1.79h-4.6V10a3.33 3.33 0 0 0 4.8-3.33 3.38 3.38 0 0 0-3-3 3.08 3.08 0 0 0-1.81.33zM5.2 25a13.9 13.9 0 0 1-4-9.15H7a.65.65 0 0 0 .64-.55.76.76 0 0 0-.25-.54 2.16 2.16 0 0 1-.69-2A2 2 0 0 1 8.36 11a2 2 0 0 1 1.73.44 2.18 2.18 0 0 1 .8 1.64 2.11 2.11 0 0 1-.8 1.65.65.65 0 0 0-.19.64.62.62 0 0 0 .59.45h4v4a.87.87 0 0 0 .2.44.78.78 0 0 0 .44.15.67.67 0 0 0 .45-.25 2.15 2.15 0 0 1 3.71 1 2.12 2.12 0 0 1-3.7 1.84.62.62 0 0 0-.7-.15.59.59 0 0 0-.39.55v5.56H7.37A8.8 8.8 0 0 0 5.2 25m9.3-23.76v4a.68.68 0 0 0 .3.55.62.62 0 0 0 .59 0c.1 0 .15-.1.2-.1a2.11 2.11 0 0 1 1.83-.8 2.17 2.17 0 0 1 1.88 1.87 1.93 1.93 0 0 1-.5 1.64 2.13 2.13 0 0 1-3.21-.05.72.72 0 0 0-.7-.15.54.54 0 0 0-.39.55v5.87h-2.77a3.12 3.12 0 0 0 .34-1.5 3.45 3.45 0 0 0-1.18-2.58 3.16 3.16 0 0 0-2.73-.7 3.34 3.34 0 0 0-2.72 2.74 3.48 3.48 0 0 0 .3 2h-4.5A14 14 0 0 1 14.5 1.24m8.11 30v4.16a.23.23 0 0 1-.24.2H7.82a.22.22 0 0 1-.2-.2v-1.89H20a.6.6 0 0 0 0-1.2H7.62v-2.13h15a7.25 7.25 0 0 0-.05 1M18.21 39H12a2.82 2.82 0 0 1-2.7-2.21h11.58A2.76 2.76 0 0 1 18.21 39m6.88-13.87a8.59 8.59 0 0 0-2.23 3.82h-7.12v-4.34a2.94 2.94 0 0 0 1.48.35 3.24 3.24 0 0 0 2.57-1.2 3.35 3.35 0 0 0-2-5.42 3.12 3.12 0 0 0-2 .3v-2.78h5.79a.63.63 0 0 0 .59-.8c0-.1-.1-.2-.2-.29a2.24 2.24 0 0 1-.74-1.84A2.16 2.16 0 0 1 23.06 11a2 2 0 0 1 1.63.49 2.14 2.14 0 0 1 .69 1.59 2.06 2.06 0 0 1-.74 1.65.54.54 0 0 0-.15.64.57.57 0 0 0 .55.45h4.06a14.51 14.51 0 0 1-4.01 9.29z" fill="currentColor"/></svg>